<svg width="48" height="48" viewBox="0 0 48 48" fill="none" xmlns="http://www.w3.org/2000/svg">
<path d="M35.9632 31.504L34.8204 27.093L31.2208 13.8487C31.143 13.5566 30.9526 13.3072 30.6913 13.1551C30.43 13.003 30.1191 12.9607 29.8267 13.0374L25.4043 14.1801C25.2988 14.0632 25.1702 13.9693 25.0266 13.9044C24.8831 13.8395 24.7276 13.805 24.5701 13.803H13.1427C12.8397 13.803 12.549 13.9234 12.3347 14.1377C12.1204 14.352 12 14.6427 12 14.9457V33.2295C12 33.5326 12.1204 33.8233 12.3347 34.0376C12.549 34.2519 12.8397 34.3723 13.1427 34.3723H24.5701C24.8732 34.3723 25.1638 34.2519 25.3781 34.0376C25.5924 33.8233 25.7128 33.5326 25.7128 33.2295V24.0876L28.2269 33.4809C28.2938 33.7302 28.4432 33.9495 28.6507 34.1031C28.8582 34.2566 29.1116 34.3354 29.3696 34.3266C29.4683 34.3378 29.568 34.3378 29.6667 34.3266L35.1861 32.8524C35.332 32.8134 35.4688 32.7459 35.5884 32.6537C35.7081 32.5615 35.8083 32.4465 35.8832 32.3153C36.0037 32.0625 36.032 31.7755 35.9632 31.504ZM17.6794 32.1325H14.2512V29.847H17.6794V32.1325ZM17.6794 27.5616H14.2512V20.7051H17.6794V27.5616ZM17.6794 18.4197H14.2512V16.1342H17.6794V18.4197ZM23.3931 32.1325H19.9649V29.847H23.3931V32.1325ZM23.3931 27.5616H19.9649V20.7051H23.3931V27.5616ZM23.3931 18.4197H19.9649V16.1342H23.3931V18.4197ZM25.9642 16.4313L29.2782 15.54L29.8724 17.7455L26.5585 18.6368L25.9642 16.4313ZM28.9239 27.4701L27.1527 20.8423L30.4666 19.9509L32.2379 26.5788L28.9239 27.4701ZM30.0667 31.8811L29.4724 29.6756L32.7864 28.7843L33.3806 30.9898L30.0667 31.8811Z" fill="#0C0C0C"/>
</svg>
