<svg width="48" height="48" viewBox="0 0 48 48" fill="none" xmlns="http://www.w3.org/2000/svg">
<path d="M33.3757 19.2201L26.1843 12.9156C25.5251 12.326 24.6717 12 23.7872 12C22.9027 12 22.0493 12.326 21.3901 12.9156L14.1987 19.2201C13.818 19.5606 13.5142 19.9782 13.3075 20.4453C13.1008 20.9124 12.9961 21.4181 13.0001 21.9288V32.4043C13.0001 33.3579 13.3789 34.2725 14.0533 34.9468C14.7276 35.6212 15.6422 36 16.5958 36H30.9786C31.9322 36 32.8468 35.6212 33.5211 34.9468C34.1955 34.2725 34.5743 33.3579 34.5743 32.4043V21.9169C34.5767 21.4081 34.471 20.9047 34.2644 20.4398C34.0578 19.975 33.7549 19.5592 33.3757 19.2201ZM26.1843 33.6029H21.3901V27.61C21.3901 27.2922 21.5164 26.9873 21.7411 26.7625C21.9659 26.5378 22.2708 26.4115 22.5886 26.4115H24.9858C25.3037 26.4115 25.6085 26.5378 25.8333 26.7625C26.0581 26.9873 26.1843 27.2922 26.1843 27.61V33.6029ZM32.1772 32.4043C32.1772 32.7222 32.0509 33.027 31.8261 33.2518C31.6013 33.4766 31.2965 33.6029 30.9786 33.6029H28.5815V27.61C28.5815 26.6564 28.2026 25.7418 27.5283 25.0675C26.854 24.3932 25.9394 24.0143 24.9858 24.0143H22.5886C21.635 24.0143 20.7204 24.3932 20.0461 25.0675C19.3718 25.7418 18.9929 26.6564 18.9929 27.61V33.6029H16.5958C16.2779 33.6029 15.9731 33.4766 15.7483 33.2518C15.5235 33.027 15.3972 32.7222 15.3972 32.4043V21.9169C15.3975 21.7467 15.4339 21.5785 15.5042 21.4235C15.5744 21.2685 15.6769 21.1302 15.8048 21.0179L22.9962 14.7255C23.2149 14.5333 23.4961 14.4273 23.7872 14.4273C24.0783 14.4273 24.3595 14.5333 24.5783 14.7255L31.7697 21.0179C31.8975 21.1302 32 21.2685 32.0702 21.4235C32.1405 21.5785 32.177 21.7467 32.1772 21.9169V32.4043Z" fill="#0C0C0C"/>
</svg>
