<svg width="48" height="48" viewBox="0 0 48 48" fill="none" xmlns="http://www.w3.org/2000/svg">
<path d="M33.8119 15.2555C32.5396 13.9798 30.853 13.2012 29.0567 13.0603C27.2605 12.9194 25.4731 13.4256 24.0174 14.4873C22.4902 13.3513 20.5894 12.8363 18.6976 13.0457C16.8058 13.2552 15.0637 14.1737 13.822 15.6163C12.5803 17.0588 11.9314 18.9182 12.0058 20.8201C12.0801 22.722 12.8724 24.525 14.223 25.8662L21.6769 33.3321C22.301 33.9463 23.1417 34.2906 24.0174 34.2906C24.8932 34.2906 25.7339 33.9463 26.358 33.3321L33.8119 25.8662C35.2134 24.4561 36 22.5488 36 20.5608C36 18.5728 35.2134 16.6655 33.8119 15.2555ZM32.1195 24.2097L24.6656 31.6636C24.5808 31.7493 24.4798 31.8173 24.3686 31.8637C24.2573 31.9101 24.138 31.934 24.0174 31.934C23.8969 31.934 23.7776 31.9101 23.6663 31.8637C23.5551 31.8173 23.4541 31.7493 23.3693 31.6636L15.9154 24.1737C14.9741 23.2115 14.4469 21.9189 14.4469 20.5728C14.4469 19.2267 14.9741 17.9341 15.9154 16.9719C16.8746 16.0248 18.1683 15.4938 19.5163 15.4938C20.8643 15.4938 22.158 16.0248 23.1172 16.9719C23.2288 17.0844 23.3616 17.1737 23.5078 17.2346C23.6541 17.2956 23.811 17.3269 23.9694 17.3269C24.1279 17.3269 24.2848 17.2956 24.431 17.2346C24.5773 17.1737 24.7101 17.0844 24.8217 16.9719C25.7809 16.0248 27.0746 15.4938 28.4226 15.4938C29.7705 15.4938 31.0643 16.0248 32.0235 16.9719C32.9778 17.9215 33.5222 19.2071 33.5401 20.5532C33.5581 21.8994 33.0481 23.199 32.1195 24.1737V24.2097Z" fill="white"/>
</svg>
