<svg width="48" height="48" viewBox="0 0 48 48" fill="none" xmlns="http://www.w3.org/2000/svg">
<path d="M28.8 21.924L22.8 18.456C22.4353 18.2455 22.0217 18.1346 21.6006 18.1345C21.1795 18.1344 20.7658 18.245 20.4011 18.4554C20.0363 18.6657 19.7333 18.9684 19.5225 19.3329C19.3116 19.6974 19.2004 20.1109 19.2 20.532V27.468C19.2004 27.8889 19.3115 28.3022 19.5222 28.6666C19.7328 29.031 20.0355 29.3336 20.4 29.544C20.7648 29.7546 21.1787 29.8655 21.6 29.8655C22.0213 29.8655 22.4352 29.7546 22.8 29.544L28.8 26.076C29.1637 25.865 29.4656 25.5622 29.6754 25.1979C29.8853 24.8335 29.9957 24.4205 29.9957 24C29.9957 23.5795 29.8853 23.1665 29.6754 22.8021C29.4656 22.4378 29.1637 22.135 28.8 21.924ZM27.6 24L21.6 27.468V20.532L27.6 24ZM24 12C21.6266 12 19.3065 12.7038 17.3332 14.0224C15.3598 15.3409 13.8217 17.2151 12.9135 19.4078C12.0052 21.6005 11.7676 24.0133 12.2306 26.3411C12.6936 28.6689 13.8365 30.807 15.5147 32.4853C17.193 34.1635 19.3311 35.3064 21.6589 35.7694C23.9867 36.2324 26.3995 35.9948 28.5922 35.0865C30.7849 34.1783 32.6591 32.6402 33.9776 30.6668C35.2962 28.6934 36 26.3734 36 24C36 22.4241 35.6896 20.8637 35.0866 19.4078C34.4835 17.9519 33.5996 16.629 32.4853 15.5147C31.371 14.4004 30.0481 13.5165 28.5922 12.9134C27.1363 12.3104 25.5759 12 24 12ZM24 33.6C22.1013 33.6 20.2452 33.037 18.6665 31.9821C17.0878 30.9272 15.8574 29.4279 15.1308 27.6738C14.4042 25.9196 14.214 23.9893 14.5845 22.1271C14.9549 20.2649 15.8692 18.5544 17.2118 17.2118C18.5544 15.8692 20.2649 14.9549 22.1271 14.5845C23.9894 14.214 25.9196 14.4042 27.6738 15.1308C29.4279 15.8574 30.9272 17.0878 31.9821 18.6665C33.037 20.2452 33.6 22.1013 33.6 24C33.6 26.5461 32.5886 28.9879 30.7882 30.7882C28.9879 32.5886 26.5461 33.6 24 33.6Z" fill="#0C0C0C"/>
</svg>
