<svg width="32" height="32" viewBox="0 0 32 32" fill="none" xmlns="http://www.w3.org/2000/svg">
<path d="M18.9105 16.5675C19.6944 15.9507 20.2665 15.105 20.5474 14.148C20.8282 13.191 20.8038 12.1702 20.4775 11.2277C20.1511 10.2852 19.5392 9.46786 18.7267 8.88937C17.9142 8.31087 16.9416 8 15.9442 8C14.9469 8 13.9743 8.31087 13.1618 8.88937C12.3493 9.46786 11.7373 10.2852 11.411 11.2277C11.0847 12.1702 11.0603 13.191 11.3411 14.148C11.6219 15.105 12.1941 15.9507 12.978 16.5675C11.6348 17.1056 10.4628 17.9981 9.58702 19.1499C8.71121 20.3017 8.16438 21.6696 8.00482 23.1077C7.99327 23.2127 8.00252 23.3189 8.03203 23.4204C8.06154 23.5218 8.11074 23.6164 8.17681 23.6988C8.31026 23.8652 8.50436 23.9718 8.71641 23.9952C8.92846 24.0185 9.1411 23.9566 9.30753 23.8232C9.47397 23.6897 9.58058 23.4956 9.6039 23.2836C9.77947 21.7206 10.5247 20.2772 11.6973 19.229C12.8698 18.1807 14.3875 17.6013 15.9602 17.6013C17.533 17.6013 19.0507 18.1807 20.2232 19.229C21.3958 20.2772 22.141 21.7206 22.3166 23.2836C22.3383 23.48 22.4321 23.6615 22.5797 23.7929C22.7274 23.9243 22.9185 23.9964 23.1161 23.9952H23.2041C23.4136 23.9711 23.6052 23.8651 23.737 23.7003C23.8688 23.5356 23.9301 23.3254 23.9077 23.1157C23.7473 21.6735 23.1976 20.3021 22.3173 19.1485C21.4369 17.995 20.2593 17.1027 18.9105 16.5675ZM15.9442 15.9998C15.3117 15.9998 14.6934 15.8122 14.1674 15.4608C13.6415 15.1094 13.2316 14.6099 12.9895 14.0255C12.7475 13.4411 12.6841 12.7981 12.8075 12.1777C12.9309 11.5573 13.2355 10.9875 13.6828 10.5402C14.1301 10.0929 14.6999 9.78833 15.3203 9.66492C15.9407 9.54152 16.5837 9.60486 17.1681 9.84692C17.7525 10.089 18.252 10.4989 18.6034 11.0248C18.9548 11.5508 19.1424 12.1691 19.1424 12.8016C19.1424 13.6498 18.8055 14.4633 18.2057 15.0631C17.6059 15.6628 16.7924 15.9998 15.9442 15.9998Z" fill="#0C0C0C"/>
</svg>
