<svg width="48" height="48" viewBox="0 0 48 48" fill="none" xmlns="http://www.w3.org/2000/svg">
<path d="M33.6162 21.828C32.753 21.6718 31.8773 21.5955 31.0002 21.6C30.4962 21.6 30.0042 21.6 29.5122 21.696C28.8997 20.8787 28.1178 20.2033 27.2202 19.716C27.9912 18.8739 28.4193 17.7738 28.4202 16.632C28.4202 15.4035 27.9321 14.2253 27.0635 13.3567C26.1948 12.488 25.0166 12 23.7882 12C22.5597 12 21.3815 12.488 20.5128 13.3567C19.6442 14.2253 19.1562 15.4035 19.1562 16.632C19.157 17.7738 19.5851 18.8739 20.3562 19.716C19.4638 20.2058 18.6833 20.876 18.0642 21.684C17.5962 21.6 17.1042 21.6 16.6002 21.6C15.7223 21.6034 14.8466 21.6878 13.9842 21.852C13.7046 21.9031 13.4523 22.0518 13.2721 22.2715C13.0919 22.4913 12.9955 22.7679 13.0002 23.052V32.952C12.9999 33.1283 13.0384 33.3025 13.1131 33.4622C13.1878 33.6219 13.2967 33.7632 13.4322 33.876C13.5668 33.9895 13.7247 34.072 13.8948 34.1176C14.0648 34.1632 14.2428 34.1709 14.4162 34.14C15.1343 33.9836 15.8655 33.8952 16.6002 33.876C18.9247 33.8735 21.1988 34.5536 23.1402 35.832L23.2962 35.892C23.4553 35.9611 23.6267 35.9978 23.8002 36C23.9147 35.9986 24.0282 35.9783 24.1362 35.94H24.2202L24.3762 35.88C26.336 34.5688 28.6421 33.8711 31.0002 33.876C31.7333 33.8794 32.4645 33.9517 33.1842 34.092C33.3575 34.1229 33.5355 34.1152 33.7056 34.0696C33.8756 34.024 34.0336 33.9415 34.1682 33.828C34.3036 33.7152 34.4126 33.5739 34.4872 33.4142C34.5619 33.2545 34.6004 33.0803 34.6002 32.904V23.004C34.5991 22.724 34.5002 22.4531 34.3205 22.2383C34.1408 22.0236 33.8916 21.8784 33.6162 21.828ZM23.8002 14.4C24.3623 14.4413 24.888 14.6938 25.2717 15.1067C25.6554 15.5196 25.8686 16.0623 25.8686 16.626C25.8686 17.1897 25.6554 17.7324 25.2717 18.1453C24.888 18.5582 24.3623 18.8107 23.8002 18.852C23.238 18.8107 22.7123 18.5582 22.3286 18.1453C21.945 17.7324 21.7317 17.1897 21.7317 16.626C21.7317 16.0623 21.945 15.5196 22.3286 15.1067C22.7123 14.6938 23.238 14.4413 23.8002 14.4ZM22.6002 32.796C20.7194 31.9266 18.6722 31.4762 16.6002 31.476C16.2042 31.476 15.8082 31.476 15.4002 31.536V24C16.4064 23.8874 17.4231 23.9076 18.4242 24.06H18.5562C19.9861 24.3228 21.3563 24.8433 22.6002 25.596V32.796ZM23.8002 23.52C23.2665 23.2122 22.7134 22.9396 22.1442 22.704H22.0722C21.6762 22.548 21.2802 22.392 20.8722 22.272C21.7053 21.6088 22.7354 21.2416 23.8002 21.228C24.8621 21.2347 25.8919 21.5935 26.7282 22.248C25.7095 22.566 24.7278 22.9925 23.8002 23.52ZM32.2002 31.536C29.7361 31.2884 27.2507 31.7027 25.0002 32.736V25.536C26.2462 24.8026 27.6173 24.3062 29.0442 24.072H29.2842C30.2489 23.9218 31.2291 23.8976 32.2002 24V31.536Z" fill="#0C0C0C"/>
</svg>
