<svg width="32" height="32" viewBox="0 0 32 32" fill="none" xmlns="http://www.w3.org/2000/svg">
<path d="M18.7983 8H12.3995C11.7631 8 11.1528 8.25281 10.7028 8.7028C10.2528 9.1528 10 9.76313 10 10.3995V23.197C9.99945 23.3379 10.0361 23.4765 10.1064 23.5987C10.1766 23.7209 10.2779 23.8224 10.3999 23.8928C10.5215 23.963 10.6594 24 10.7998 24C10.9402 24 11.0782 23.963 11.1998 23.8928L15.5989 21.3493L19.998 23.8928C20.1199 23.9619 20.2578 23.9978 20.3979 23.9968C20.5381 23.9978 20.676 23.9619 20.7979 23.8928C20.9199 23.8224 21.0212 23.7209 21.0914 23.5987C21.1616 23.4765 21.1983 23.3379 21.1978 23.197V10.3995C21.1978 9.76313 20.945 9.1528 20.495 8.7028C20.045 8.25281 19.4347 8 18.7983 8ZM19.5981 21.8133L15.9988 19.7337C15.8772 19.6635 15.7393 19.6265 15.5989 19.6265C15.4585 19.6265 15.3206 19.6635 15.199 19.7337L11.5997 21.8133V10.3995C11.5997 10.1874 11.684 9.98395 11.834 9.83395C11.984 9.68395 12.1874 9.59968 12.3995 9.59968H18.7983C19.0104 9.59968 19.2138 9.68395 19.3638 9.83395C19.5138 9.98395 19.5981 10.1874 19.5981 10.3995V21.8133Z" fill="#0C0C0C"/>
</svg>
