<svg width="48" height="48" viewBox="0 0 48 48" fill="none" xmlns="http://www.w3.org/2000/svg">
<path d="M29.1974 12H19.5993C18.6447 12 17.7292 12.3792 17.0542 13.0542C16.3792 13.7292 16 14.6447 16 15.5993V34.7955C15.9992 35.0069 16.0542 35.2148 16.1596 35.3981C16.2649 35.5814 16.4168 35.7336 16.5999 35.8393C16.7823 35.9446 16.9892 36 17.1998 36C17.4104 36 17.6173 35.9446 17.7997 35.8393L24.3983 32.024L30.997 35.8393C31.1799 35.9429 31.3867 35.9967 31.5969 35.9952C31.8071 35.9967 32.0139 35.9429 32.1968 35.8393C32.3799 35.7336 32.5318 35.5814 32.6371 35.3981C32.7425 35.2148 32.7975 35.0069 32.7967 34.7955V15.5993C32.7967 14.6447 32.4175 13.7292 31.7425 13.0542C31.0675 12.3792 30.152 12 29.1974 12ZM30.3971 32.7199L24.9982 29.6005C24.8158 29.4952 24.6089 29.4398 24.3983 29.4398C24.1877 29.4398 23.9808 29.4952 23.7985 29.6005L18.3995 32.7199V15.5993C18.3995 15.2811 18.5259 14.9759 18.7509 14.7509C18.9759 14.5259 19.2811 14.3995 19.5993 14.3995H29.1974C29.5156 14.3995 29.8207 14.5259 30.0457 14.7509C30.2707 14.9759 30.3971 15.2811 30.3971 15.5993V32.7199Z" fill="white"/>
</svg>
