<svg width="32" height="32" viewBox="0 0 32 32" fill="none" xmlns="http://www.w3.org/2000/svg">
<path d="M23.7873 22.6511L20.8188 19.7067C21.9711 18.2699 22.5291 16.4464 22.3781 14.6109C22.2272 12.7754 21.3787 11.0675 20.0071 9.83834C18.6356 8.60923 16.8452 7.95232 15.0042 8.0027C13.1632 8.05307 11.4115 8.8069 10.1092 10.1092C8.8069 11.4115 8.05307 13.1632 8.0027 15.0042C7.95232 16.8452 8.60923 18.6356 9.83834 20.0071C11.0675 21.3787 12.7753 22.2272 14.6109 22.3781C16.4464 22.5291 18.2699 21.9711 19.7067 20.8188L22.6511 23.7633C22.7255 23.8383 22.814 23.8978 22.9115 23.9385C23.009 23.9791 23.1136 24 23.2192 24C23.3249 24 23.4294 23.9791 23.5269 23.9385C23.6244 23.8978 23.7129 23.8383 23.7873 23.7633C23.9315 23.6141 24.0122 23.4147 24.0122 23.2072C24.0122 22.9997 23.9315 22.8003 23.7873 22.6511ZM15.2179 20.8188C14.1102 20.8188 13.0273 20.4903 12.1062 19.8749C11.1851 19.2595 10.4673 18.3847 10.0433 17.3613C9.61941 16.3379 9.50849 15.2117 9.72461 14.1252C9.94072 13.0388 10.4742 12.0408 11.2575 11.2575C12.0408 10.4742 13.0388 9.94072 14.1252 9.72461C15.2117 9.50849 16.3379 9.61941 17.3613 10.0433C18.3847 10.4673 19.2595 11.1851 19.8749 12.1062C20.4903 13.0273 20.8188 14.1102 20.8188 15.2179C20.8188 16.7034 20.2287 18.128 19.1784 19.1784C18.128 20.2287 16.7034 20.8188 15.2179 20.8188Z" fill="#0C0C0C"/>
</svg>
