<svg width="32" height="32" viewBox="0 0 32 32" fill="none" xmlns="http://www.w3.org/2000/svg">
<path d="M23.7658 15.6343L17.3657 9.23423C17.2538 9.12238 17.1113 9.04622 16.9561 9.01536C16.801 8.98451 16.6401 9.00035 16.494 9.06089C16.3478 9.12142 16.2229 9.22394 16.135 9.35547C16.0471 9.487 16.0001 9.64164 16.0001 9.79984V12.6359C13.8147 12.8381 11.7834 13.8486 10.3038 15.4695C8.82413 17.0905 8.00262 19.2052 8 21.4V22.6C8.00013 22.766 8.05193 22.928 8.14822 23.0632C8.24451 23.1985 8.38052 23.3005 8.53739 23.355C8.69425 23.4096 8.86419 23.4139 9.02363 23.3675C9.18308 23.3211 9.32413 23.2262 9.42722 23.096C10.211 22.1639 11.1726 21.3974 12.256 20.8413C13.3394 20.2851 14.5227 19.9504 15.7369 19.8567C15.7769 19.8519 15.8769 19.8439 16.0001 19.8359V22.6C16.0001 22.7582 16.0471 22.9128 16.135 23.0443C16.2229 23.1759 16.3478 23.2784 16.494 23.3389C16.6401 23.3995 16.801 23.4153 16.9561 23.3845C17.1113 23.3536 17.2538 23.2774 17.3657 23.1656L23.7658 16.7655C23.9157 16.6155 24 16.412 24 16.1999C24 15.9878 23.9157 15.7843 23.7658 15.6343ZM17.6001 20.6688V18.9999C17.6001 18.7878 17.5158 18.5843 17.3658 18.4342C17.2158 18.2842 17.0123 18.1999 16.8001 18.1999C16.5961 18.1999 15.7633 18.2399 15.5505 18.2679C13.3943 18.4666 11.342 19.2858 9.64162 20.6264C9.83461 18.8619 10.6717 17.2306 11.9925 16.0448C13.3133 14.8591 15.0251 14.2022 16.8001 14.1999C17.0123 14.1999 17.2158 14.1156 17.3658 13.9656C17.5158 13.8155 17.6001 13.6121 17.6001 13.3999V11.7311L22.069 16.1999L17.6001 20.6688Z" fill="#0C0C0C"/>
</svg>
