<svg width="48" height="48" viewBox="0 0 48 48" fill="none" xmlns="http://www.w3.org/2000/svg">
<path d="M35.6487 22.9515L26.0485 13.3513C25.8807 13.1836 25.6669 13.0693 25.4342 13.023C25.2014 12.9768 24.9602 13.0005 24.741 13.0913C24.5217 13.1821 24.3343 13.3359 24.2024 13.5332C24.0706 13.7305 24.0002 13.9625 24.0001 14.1998V18.4538C20.722 18.7572 17.6751 20.2729 15.4557 22.7043C13.2362 25.1357 12.0039 28.3079 12 31.5999V33.4C12.0002 33.6491 12.0779 33.8919 12.2223 34.0949C12.3668 34.2978 12.5708 34.4508 12.8061 34.5326C13.0414 34.6143 13.2963 34.6209 13.5355 34.5512C13.7746 34.4816 13.9862 34.3393 14.1408 34.144C15.3165 32.7459 16.759 31.5961 18.384 30.7619C20.009 29.9276 21.7841 29.4256 23.6053 29.2851C23.6653 29.2779 23.8153 29.2659 24.0001 29.2539V33.4C24.0002 33.6373 24.0706 33.8692 24.2024 34.0665C24.3343 34.2638 24.5217 34.4176 24.741 34.5084C24.9602 34.5992 25.2014 34.623 25.4342 34.5767C25.6669 34.5304 25.8807 34.4161 26.0485 34.2484L35.6487 24.6483C35.8736 24.4232 36 24.1181 36 23.7999C36 23.4817 35.8736 23.1765 35.6487 22.9515ZM26.4002 30.5031V27.9999C26.4002 27.6816 26.2737 27.3764 26.0487 27.1514C25.8236 26.9263 25.5184 26.7999 25.2001 26.7999C24.8941 26.7999 23.6449 26.8599 23.3257 26.9019C20.0915 27.1999 17.013 28.4287 14.4624 30.4395C14.7519 27.7928 16.0075 25.3459 17.9887 23.5672C19.97 21.7886 22.5376 20.8032 25.2001 20.7998C25.5184 20.7998 25.8236 20.6734 26.0487 20.4484C26.2737 20.2233 26.4002 19.9181 26.4002 19.5998V17.0966L33.1034 23.7999L26.4002 30.5031Z" fill="white"/>
</svg>
